<svg xmlns="http://www.w3.org/2000/svg" version="1.1" xmlns:xlink="http://www.w3.org/1999/xlink" xmlns:svgjs="http://svgjs.dev/svgjs" width="2000" height="383" viewBox="0 0 2000 383"><g transform="matrix(1,0,0,1,-0.8143062542798134,0.22985422764358532)"><svg viewBox="0 0 396 76" data-background-color="#ffffff" preserveAspectRatio="xMidYMid meet" height="383" width="2000" xmlns="http://www.w3.org/2000/svg" xmlns:xlink="http://www.w3.org/1999/xlink"><g id="tight-bounds" transform="matrix(1,0,0,1,0.2400000000000091,0.4417240934290021)"><svg viewBox="0 0 395.52 75.116551813142" height="75.116551813142" width="395.52"><g><svg viewBox="0 0 506.49681529076025 96.19309837424102" height="75.116551813142" width="395.52"><g transform="matrix(1,0,0,1,110.97681529076027,14.075279637902483)"><svg viewBox="0 0 395.52 68.04253909843605" height="68.04253909843605" width="395.52"><g id="textblocktransform"><svg viewBox="0 0 395.52 68.04253909843605" height="68.04253909843605" width="395.52" id="textblock"><g><svg viewBox="0 0 395.52 68.04253909843605" height="68.04253909843605" width="395.52"><g transform="matrix(1,0,0,1,0,0)"><svg width="395.52" viewBox="4.2 -36.25 271.73 46.75" height="68.04253909843605" data-palette-color="#754bfd"><path d="M15.25 0L4.2 0 4.2-34.4 15.25-34.4 15.25 0ZM57.5-27Q62-27 64.25-24.43 66.5-21.85 66.5-17.1L66.5-17.1 66.5 0 56.55 0 56.55-15.9Q56.55-17.6 55.72-18.63 54.9-19.65 53.4-19.65L53.4-19.65Q51.65-19.65 50.55-18.45 49.45-17.25 49.45-15.5L49.45-15.5 49.45 0 39.5 0 39.5-15.9Q39.5-17.6 38.67-18.63 37.85-19.65 36.35-19.65L36.35-19.65Q34.6-19.65 33.5-18.45 32.4-17.25 32.4-15.5L32.4-15.5 32.4 0 22.45 0 22.45-26.4 30.6-26.4 31.25-22.45Q32.75-24.55 35.22-25.78 37.7-27 40.45-27L40.45-27Q46.4-27 48.45-22.45L48.45-22.45Q50-24.55 52.42-25.78 54.85-27 57.5-27L57.5-27ZM85.5-27Q91.55-27 95.35-24.98 99.15-22.95 99.15-18.4L99.15-18.4 99.15-8.1Q99.15-7.25 99.55-6.7 99.95-6.15 100.75-6.15L100.75-6.15 102.55-6.15 102.55-0.4Q102.4-0.3 101.77-0.08 101.15 0.15 100 0.38 98.85 0.6 97.35 0.6L97.35 0.6Q94.45 0.6 92.57-0.28 90.7-1.15 90-2.7L90-2.7Q88.1-1.2 85.75-0.3 83.4 0.6 80.25 0.6L80.25 0.6Q70.95 0.6 70.95-6.8L70.95-6.8Q70.95-10.65 73.02-12.68 75.1-14.7 79-15.45 82.9-16.2 89.2-16.2L89.2-16.2 89.2-17.5Q89.2-19.05 88.12-19.85 87.05-20.65 85.35-20.65L85.35-20.65Q83.8-20.65 82.67-20.1 81.55-19.55 81.55-18.35L81.55-18.35 81.55-18.15 71.75-18.15Q71.7-18.4 71.7-18.85L71.7-18.85Q71.7-22.6 75.27-24.8 78.85-27 85.5-27L85.5-27ZM89.2-11.5Q84.95-11.5 82.92-10.58 80.9-9.65 80.9-8.1L80.9-8.1Q80.9-5.6 84.3-5.6L84.3-5.6Q86.25-5.6 87.72-6.65 89.2-7.7 89.2-9.25L89.2-9.25 89.2-11.5ZM136.29-31.35Q136.29-28.3 134.77-26.65 133.24-25 130.19-24.2L130.19-24.2Q131.64-23.1 132.47-21.63 133.29-20.15 133.29-18.5L133.29-18.5Q133.29-14.3 130.12-12.15 126.94-10 122.19-10L122.19-10 118.39-10Q115.24-10 115.24-8.55L115.24-8.55Q115.24-7.85 115.94-7.43 116.64-7 118.39-7L118.39-7 127.39-7Q131.79-7 134.04-4.7 136.29-2.4 136.29 1.45L136.29 1.45Q136.29 4.3 134.79 6.35 133.29 8.4 130.74 9.45 128.19 10.5 125.19 10.5L125.19 10.5 110.49 10.5Q108.69 10.5 107.17 9.65 105.64 8.8 104.74 7.33 103.84 5.85 103.84 4.05L103.84 4.05Q103.84 2.1 105.04 0.53 106.24-1.05 108.04-1.85L108.04-1.85Q106.84-2.7 106.14-3.9 105.44-5.1 105.44-6.5L105.44-6.5Q105.44-8.45 106.89-10.03 108.34-11.6 110.49-12.15L110.49-12.15Q108.54-13.4 107.39-15.03 106.24-16.65 106.24-18.45L106.24-18.45Q106.24-23.05 109.97-25.03 113.69-27 119.84-27L119.84-27Q122.54-27 124.19-26.7L124.19-26.7Q126.64-28.25 127.37-29.53 128.09-30.8 128.09-31.35L128.09-31.35 136.29-31.35ZM119.74-21.8Q118.09-21.8 117.04-20.95 115.99-20.1 115.99-18.5L115.99-18.5Q115.99-16.85 116.97-16.03 117.94-15.2 119.74-15.2L119.74-15.2Q121.54-15.2 122.57-16.03 123.59-16.85 123.59-18.5L123.59-18.5Q123.59-20.15 122.57-20.98 121.54-21.8 119.74-21.8L119.74-21.8ZM115.89 0Q114.74 0 114.02 0.63 113.29 1.25 113.29 2.4L113.29 2.4Q113.29 3.55 114.04 4.25 114.79 4.95 115.89 4.95L115.89 4.95 123.69 4.95Q124.79 4.95 125.57 4.28 126.34 3.6 126.34 2.45L126.34 2.45Q126.34 1.3 125.59 0.65 124.84 0 123.69 0L123.69 0 115.89 0ZM150.24-29.5L140.29-29.5 140.29-36.25 150.24-36.25 150.24-29.5ZM150.24 0L140.29 0 140.29-26.4 150.24-26.4 150.24 0ZM174.79-27Q179.39-27 181.69-24.45 183.99-21.9 183.99-17.1L183.99-17.1 183.99 0 174.04 0 174.04-15.9Q174.04-17.6 173.16-18.63 172.29-19.65 170.69-19.65L170.69-19.65Q168.84-19.65 167.69-18.45 166.54-17.25 166.54-15.5L166.54-15.5 166.54 0 156.59 0 156.59-26.4 164.74-26.4 165.39-22.4Q166.94-24.5 169.46-25.75 171.99-27 174.79-27L174.79-27ZM202.99-27Q209.04-27 212.84-24.98 216.64-22.95 216.64-18.4L216.64-18.4 216.64-8.1Q216.64-7.25 217.04-6.7 217.44-6.15 218.24-6.15L218.24-6.15 220.04-6.15 220.04-0.4Q219.89-0.3 219.26-0.08 218.64 0.15 217.49 0.38 216.34 0.6 214.84 0.6L214.84 0.6Q211.94 0.6 210.06-0.28 208.19-1.15 207.49-2.7L207.49-2.7Q205.59-1.2 203.24-0.3 200.89 0.6 197.74 0.6L197.74 0.6Q188.44 0.6 188.44-6.8L188.44-6.8Q188.44-10.65 190.51-12.68 192.59-14.7 196.49-15.45 200.39-16.2 206.69-16.2L206.69-16.2 206.69-17.5Q206.69-19.05 205.61-19.85 204.54-20.65 202.84-20.65L202.84-20.65Q201.29-20.65 200.16-20.1 199.04-19.55 199.04-18.35L199.04-18.35 199.04-18.15 189.24-18.15Q189.19-18.4 189.19-18.85L189.19-18.85Q189.19-22.6 192.76-24.8 196.34-27 202.99-27L202.99-27ZM206.69-11.5Q202.44-11.5 200.41-10.58 198.39-9.65 198.39-8.1L198.39-8.1Q198.39-5.6 201.79-5.6L201.79-5.6Q203.74-5.6 205.21-6.65 206.69-7.7 206.69-9.25L206.69-9.25 206.69-11.5ZM239.33-27.05Q240.48-27.05 241.38-26.78 242.28-26.5 242.28-26.45L242.28-26.45 242.28-18.1 239.08-18.1Q235.98-18.1 234.61-16.5 233.23-14.9 233.23-11.75L233.23-11.75 233.23 0 223.28 0 223.28-26.4 231.43-26.4 232.08-22.4Q232.98-24.7 234.93-25.88 236.88-27.05 239.33-27.05L239.33-27.05ZM266.53-0.8Q264.48 4.75 261.5 7.63 258.53 10.5 253.18 10.5L253.18 10.5Q249.93 10.5 247.43 9.6L247.43 9.6 247.43 3.65 251.43 3.65Q255.18 3.65 255.88 0L255.88 0 245.38-26.4 256.08-26.4 261.13-8.85 261.48-8.85 266.13-26.4 275.93-26.4 266.53-0.8Z" opacity="1" transform="matrix(1,0,0,1,0,0)" fill="#754bfd" class="wordmark-text-0" data-fill-palette-color="primary" id="text-0"></path></svg></g></svg></g></svg></g></svg></g><g><svg viewBox="0 0 94.91360483055789 96.19309837424102" height="96.19309837424102" width="94.91360483055789"><g><svg xmlns="http://www.w3.org/2000/svg" xmlns:xlink="http://www.w3.org/1999/xlink" version="1.1" x="0" y="0" viewBox="14.806151459514112 14.221164451098781 79.48187404418752 80.55333840233644" enable-background="new 0 0 109 109" xml:space="preserve" height="96.19309837424102" width="94.91360483055789" class="icon-icon-0" data-fill-palette-color="accent" id="icon-0"><path fill="#754bfd" d="M17.423 24.589L23.675 18.337 28.796 19.709 29.371 19.861A1.95 1.95 0 0 1 30.521 21.637C30.521 21.973 30.428 22.288 30.275 22.564A1.94 1.94 0 0 1 29.5 23.342L22.341 30.498C22.19 30.738 21.99 30.941 21.747 31.093A1.9 1.9 0 0 1 20.702 31.402 1.945 1.945 0 0 1 18.764 29.589zM16.744 22.059L21.144 17.66 17.237 16.612A1.13 1.13 0 0 0 16.691 16.459H16.675C16.063 16.471 15.575 16.949 15.539 17.555 15.536 17.58 15.524 17.599 15.524 17.626 15.524 17.857 15.605 18.058 15.719 18.238zM23.803 32.759A3.54 3.54 0 0 0 23.038 34.947C23.038 36.052 23.55 37.029 24.336 37.686L24.339 37.708 40.51 53.898 53.637 42.047 36.936 25.347 36.247 24.655A3.55 3.55 0 0 0 34.096 23.921 3.54 3.54 0 0 0 31.728 24.835L31.429 25.133 24.427 32.133zM92.608 81.409A1.937 1.937 0 0 0 90.03 80.927 2 2 0 0 0 89.405 81.554L80.582 90.377 80.065 90.897C79.854 91.209 79.725 91.586 79.725 91.994 79.725 92.595 80.005 93.129 80.44 93.488 80.637 93.61 80.84 93.727 81.047 93.829 84.361 95.5 88.508 94.958 91.274 92.188 94.076 89.388 94.604 85.179 92.864 81.844 92.786 81.694 92.695 81.552 92.608 81.409M80.45 72.827A3.6 3.6 0 0 0 81.031 70.882 3.55 3.55 0 0 0 80.158 68.564L79.771 68.177 67.446 55.854 55.586 68.991 67.42 80.838 67.467 80.883A3.555 3.555 0 0 0 71.998 81.277C72.358 81.03 72.67 80.716 72.919 80.357L79.393 73.886A3.6 3.6 0 0 0 80.45 72.827M80.153 87.586L86.627 81.112A3.6 3.6 0 0 0 87.685 80.053C88.048 79.493 88.265 78.828 88.265 78.114 88.265 77.239 87.939 76.449 87.421 75.83A4 4 0 0 0 87.002 75.402 4 4 0 0 0 86.575 74.981 3.56 3.56 0 0 0 84.289 74.138C83.549 74.138 82.856 74.364 82.289 74.75 81.906 75.009 81.579 75.336 81.322 75.716L74.878 82.159A3.7 3.7 0 0 0 73.805 83.232 3.57 3.57 0 0 0 73.233 85.166C73.233 86.255 73.73 87.219 74.498 87.875A3.56 3.56 0 0 0 77.205 89.14 3.58 3.58 0 0 0 80.153 87.586M30.619 91.388C30.529 91.478 30.427 91.547 30.327 91.627 30.166 91.818 30 92.004 29.826 92.186A8.854 8.854 0 0 1 17.304 79.668C17.485 79.487 17.676 79.325 17.866 79.166 17.945 79.066 18.014 78.964 18.105 78.873L57.349 43.447A3.83 3.83 0 0 1 62.763 43.45L66.045 46.73A3.83 3.83 0 0 1 66.045 52.145zM73.677 35.812C77.565 39.707 83.874 39.707 87.762 35.812 93.283 30.293 95.292 22.606 93.823 15.49 93.786 15.311 93.743 15.134 93.704 14.96A1.3 1.3 0 0 0 93.454 14.588 1.257 1.257 0 0 0 91.679 14.588 1.2 1.2 0 0 0 91.456 14.932C91.425 14.994 91.409 15.058 91.381 15.118A7.2 7.2 0 0 1 89.936 17.2 7.24 7.24 0 0 1 83.432 19.194C83.418 19.19 83.408 19.188 83.395 19.182A9.96 9.96 0 0 0 73.676 21.731C69.788 25.619 69.788 31.929 73.677 35.812M75.893 41.375L68.355 33.838A3.83 3.83 0 0 0 62.942 33.838L62.428 34.356A3.82 3.82 0 0 0 62.428 39.768L69.963 47.306A3.83 3.83 0 0 0 75.377 47.306L75.894 46.791A3.833 3.833 0 0 0 75.893 41.375" data-fill-palette-color="accent"></path></svg></g></svg></g></svg></g><defs></defs></svg><rect width="395.52" height="75.116551813142" fill="none" stroke="none" visibility="hidden"></rect></g></svg></g></svg>